<svg width="18" height="18" viewBox="0 0 18 18" fill="none" xmlns="http://www.w3.org/2000/svg">
<title>Speaker mute icon </title>
<g clip-path="url(#clip0_97_30)">
<path d="M9 0.5625C4.34025 0.5625 0.5625 4.34025 0.5625 9C0.5625 13.6592 4.34025 17.4375 9 17.4375C13.6598 17.4375 17.4375 13.6592 17.4375 9C17.4375 4.34025 13.6598 0.5625 9 0.5625ZM15.75 9C15.7518 10.4989 15.2522 11.9554 14.3308 13.1378L11.6648 10.4715V10.0927C12.3142 10.0927 12.8405 9.60384 12.8405 9C12.8405 8.39587 12.3142 7.90678 11.6648 7.90678V3.90347C11.6648 3.76678 11.5456 3.65625 11.3991 3.65625C11.252 3.65625 11.1333 3.76678 11.1333 3.90347V4.03144L7.66463 6.471L4.86253 3.66862C6.04484 2.74749 7.50122 2.24814 9 2.25C12.7277 2.25 15.75 5.27175 15.75 9ZM2.25 9C2.24814 7.501 2.74759 6.04442 3.66891 4.86197L5.63597 6.82903H5.41941C5.06841 6.82903 4.78378 7.09313 4.78378 7.41966V10.5798C4.78378 10.906 5.06841 11.171 5.41941 11.171H7.15472L11.133 13.9686V14.0965C11.133 14.2327 11.2517 14.3438 11.3988 14.3438C11.5453 14.3438 11.6646 14.2327 11.6646 14.0965V12.8579L13.1375 14.3308C11.9553 15.2522 10.4989 15.7518 9 15.75C5.27175 15.75 2.25 12.7277 2.25 9Z" fill="#042A2B"/>
</g>
<defs>
<clipPath id="clip0_97_30">
<rect width="18" height="18" fill="white"/>
</clipPath>
</defs>
</svg>
