<svg width="18" height="18" viewBox="0 0 18 18" fill="none" xmlns="http://www.w3.org/2000/svg">
<title>Speaker icon</title>
<g clip-path="url(#clip0_4_426)">
<path d="M14.1227 2.50958L13.4258 3.20624C15.2609 4.47974 16.4652 6.60149 16.4652 8.99943C16.4652 11.3931 15.2652 13.5112 13.4359 14.7853L14.1328 15.4822C16.1339 14.0226 17.4375 11.6603 17.4375 8.99943C17.4375 6.3343 16.1297 3.96843 14.1227 2.50958Z" fill="#042A2B"/>
<path d="M15.3718 8.99945C15.3718 6.90245 14.2816 5.0552 12.6377 3.99432L11.9307 4.70139C13.4064 5.56707 14.3992 7.16907 14.3992 8.99945C14.3992 10.8256 13.4114 12.4248 11.9425 13.2913L12.6484 13.9981C14.2864 12.9361 15.3718 11.0922 15.3718 8.99945Z" fill="#042A2B"/>
<path d="M13.3484 8.99946C13.3484 7.45653 12.454 6.11806 11.1564 5.4754L10.4172 6.21565C11.5585 6.626 12.3767 7.71893 12.3767 8.99946C12.3767 10.2755 11.565 11.3653 10.4307 11.7799L11.1687 12.5179C12.4597 11.8727 13.3484 10.5385 13.3484 8.99946Z" fill="#042A2B"/>
<path d="M11.1094 9C11.1094 8.04628 10.2831 7.27369 9.26409 7.27369V0.952875C9.26409 0.737156 9.07706 0.5625 8.84644 0.5625C8.61637 0.5625 8.42934 0.737156 8.42934 0.952875V1.14891C8.12475 1.39613 3.49622 5.57241 3.49622 5.57241H1.55953C1.00884 5.57241 0.5625 5.9895 0.5625 6.50475V11.4944C0.5625 12.0099 1.00884 12.427 1.55953 12.427H3.4965V12.4276C3.4965 12.4276 6.20522 14.4987 8.42963 16.8446V17.0466C8.42963 17.2623 8.61666 17.4375 8.84672 17.4375C9.07734 17.4375 9.26437 17.2623 9.26437 17.0466V10.7257C10.2833 10.7257 11.1094 9.95288 11.1094 9Z" fill="#042A2B"/>
</g>
<defs>
<clipPath id="clip0_4_426">
<rect width="18" height="18" fill="white"/>
</clipPath>
</defs>
</svg>
