<svg width="35" height="35" viewBox="0 0 35 35" fill="none" xmlns="http://www.w3.org/2000/svg">
<title>Reload</title>
<path d="M27.7084 19.6875C27.7084 21.8507 27.0669 23.9654 25.8651 25.764C24.6633 27.5627 22.955 28.9646 20.9565 29.7924C18.9579 30.6203 16.7587 30.8369 14.6371 30.4148C12.5154 29.9928 10.5665 28.9511 9.0369 27.4215C7.50726 25.8918 6.46557 23.943 6.04354 21.8213C5.62151 19.6996 5.83811 17.5005 6.66595 15.5019C7.49378 13.5033 8.89567 11.7951 10.6943 10.5933C12.493 9.39147 14.6076 8.75 16.7709 8.75H29.1667M29.1667 8.75L24.7917 4.375M29.1667 8.75L24.7917 13.125" stroke="#042A2B" stroke-width="4" stroke-linecap="round" stroke-linejoin="round"/>
</svg>
